ply
format ascii 1.0
comment Created by Blender 2.82 (sub 7) - www.blender.org, source file: ''
element vertex 256
property float x
property float y
property float z
property float nx
property float ny
property float nz
property float s
property float t
property uchar red
property uchar green
property uchar blue
property uchar alpha
element face 65
property list uchar uint vertex_indices
end_header
0.000000 1.000000 -1.000000 0.043898 0.893565 0.446782 0.250000 0.490000 128 128 128 255
0.000000 0.000000 1.000000 0.043898 0.893565 0.446782 0.250000 0.250000 138 138 138 255
0.098017 0.995185 -1.000000 0.043898 0.893565 0.446782 0.273524 0.488844 128 128 128 255
0.098017 0.995185 -1.000000 0.131272 0.884959 0.446782 0.273524 0.488844 128 128 128 255
0.000000 0.000000 1.000000 0.131272 0.884959 0.446782 0.250000 0.250000 138 138 138 255
0.195090 0.980785 -1.000000 0.131272 0.884959 0.446782 0.296822 0.485388 128 128 128 255
0.195090 0.980785 -1.000000 0.217380 0.867831 0.446782 0.296822 0.485388 128 128 128 255
0.000000 0.000000 1.000000 0.217380 0.867831 0.446782 0.250000 0.250000 138 138 138 255
0.290285 0.956940 -1.000000 0.217380 0.867831 0.446782 0.319668 0.479666 128 128 128 255
0.290285 0.956940 -1.000000 0.301396 0.842345 0.446782 0.319668 0.479666 128 128 128 255
0.000000 0.000000 1.000000 0.301396 0.842345 0.446782 0.250000 0.250000 138 138 138 255
0.382683 0.923880 -1.000000 0.301396 0.842345 0.446782 0.341844 0.471731 128 128 128 255
0.382683 0.923880 -1.000000 0.382509 0.808747 0.446782 0.341844 0.471731 128 128 128 255
0.000000 0.000000 1.000000 0.382509 0.808747 0.446782 0.250000 0.250000 138 138 138 255
0.471397 0.881921 -1.000000 0.382509 0.808747 0.446782 0.363135 0.461661 128 128 128 255
0.471397 0.881921 -1.000000 0.459938 0.767361 0.446782 0.363135 0.461661 128 128 128 255
0.000000 0.000000 1.000000 0.459938 0.767361 0.446782 0.250000 0.250000 138 138 138 255
0.555570 0.831470 -1.000000 0.459938 0.767361 0.446782 0.383337 0.449553 128 128 128 255
0.555570 0.831470 -1.000000 0.532938 0.718584 0.446782 0.383337 0.449553 128 128 128 255
0.000000 0.000000 1.000000 0.532938 0.718584 0.446782 0.250000 0.250000 138 138 138 255
0.634393 0.773010 -1.000000 0.532938 0.718584 0.446782 0.402254 0.435522 128 128 128 255
0.634393 0.773010 -1.000000 0.600805 0.662887 0.446782 0.402254 0.435522 128 128 128 255
0.000000 0.000000 1.000000 0.600805 0.662887 0.446782 0.250000 0.250000 138 138 138 255
0.707107 0.707107 -1.000000 0.600805 0.662887 0.446782 0.419706 0.419706 128 128 128 255
0.707107 0.707107 -1.000000 0.662887 0.600805 0.446782 0.419706 0.419706 128 128 128 255
0.000000 0.000000 1.000000 0.662887 0.600805 0.446782 0.250000 0.250000 138 138 138 255
0.773010 0.634393 -1.000000 0.662887 0.600805 0.446782 0.435522 0.402254 128 128 128 255
0.773010 0.634393 -1.000000 0.718584 0.532938 0.446782 0.435522 0.402254 128 128 128 255
0.000000 0.000000 1.000000 0.718584 0.532938 0.446782 0.250000 0.250000 138 138 138 255
0.831470 0.555570 -1.000000 0.718584 0.532938 0.446782 0.449553 0.383337 128 128 128 255
0.831470 0.555570 -1.000000 0.767361 0.459938 0.446782 0.449553 0.383337 128 128 128 255
0.000000 0.000000 1.000000 0.767361 0.459938 0.446782 0.250000 0.250000 138 138 138 255
0.881921 0.471397 -1.000000 0.767361 0.459938 0.446782 0.461661 0.363135 128 128 128 255
0.881921 0.471397 -1.000000 0.808747 0.382509 0.446782 0.461661 0.363135 128 128 128 255
0.000000 0.000000 1.000000 0.808747 0.382509 0.446782 0.250000 0.250000 138 138 138 255
0.923880 0.382683 -1.000000 0.808747 0.382509 0.446782 0.471731 0.341844 128 128 128 255
0.923880 0.382683 -1.000000 0.842345 0.301396 0.446782 0.471731 0.341844 128 128 128 255
0.000000 0.000000 1.000000 0.842345 0.301396 0.446782 0.250000 0.250000 138 138 138 255
0.956940 0.290285 -1.000000 0.842345 0.301396 0.446782 0.479666 0.319668 128 128 128 255
0.956940 0.290285 -1.000000 0.867831 0.217380 0.446782 0.479666 0.319668 128 128 128 255
0.000000 0.000000 1.000000 0.867831 0.217380 0.446782 0.250000 0.250000 138 138 138 255
0.980785 0.195090 -1.000000 0.867831 0.217380 0.446782 0.485388 0.296822 128 128 128 255
0.980785 0.195090 -1.000000 0.884959 0.131271 0.446782 0.485388 0.296822 128 128 128 255
0.000000 0.000000 1.000000 0.884959 0.131271 0.446782 0.250000 0.250000 138 138 138 255
0.995185 0.098017 -1.000000 0.884959 0.131271 0.446782 0.488844 0.273524 128 128 128 255
0.995185 0.098017 -1.000000 0.893565 0.043898 0.446782 0.488844 0.273524 128 128 128 255
0.000000 0.000000 1.000000 0.893565 0.043898 0.446782 0.250000 0.250000 138 138 138 255
1.000000 -0.000000 -1.000000 0.893565 0.043898 0.446782 0.490000 0.250000 128 128 128 255
1.000000 -0.000000 -1.000000 0.893565 -0.043898 0.446782 0.490000 0.250000 128 128 128 255
0.000000 0.000000 1.000000 0.893565 -0.043898 0.446782 0.250000 0.250000 138 138 138 255
0.995185 -0.098017 -1.000000 0.893565 -0.043898 0.446782 0.488844 0.226476 128 128 128 255
0.995185 -0.098017 -1.000000 0.884959 -0.131271 0.446782 0.488844 0.226476 128 128 128 255
0.000000 0.000000 1.000000 0.884959 -0.131271 0.446782 0.250000 0.250000 138 138 138 255
0.980785 -0.195091 -1.000000 0.884959 -0.131271 0.446782 0.485388 0.203178 128 128 128 255
0.980785 -0.195091 -1.000000 0.867831 -0.217381 0.446783 0.485388 0.203178 128 128 128 255
0.000000 0.000000 1.000000 0.867831 -0.217381 0.446783 0.250000 0.250000 138 138 138 255
0.956940 -0.290285 -1.000000 0.867831 -0.217381 0.446783 0.479666 0.180332 128 128 128 255
0.956940 -0.290285 -1.000000 0.842345 -0.301396 0.446782 0.479666 0.180332 128 128 128 255
0.000000 0.000000 1.000000 0.842345 -0.301396 0.446782 0.250000 0.250000 138 138 138 255
0.923879 -0.382684 -1.000000 0.842345 -0.301396 0.446782 0.471731 0.158156 128 128 128 255
0.923879 -0.382684 -1.000000 0.808747 -0.382509 0.446782 0.471731 0.158156 128 128 128 255
0.000000 0.000000 1.000000 0.808747 -0.382509 0.446782 0.250000 0.250000 138 138 138 255
0.881921 -0.471397 -1.000000 0.808747 -0.382509 0.446782 0.461661 0.136865 128 128 128 255
0.881921 -0.471397 -1.000000 0.767360 -0.459938 0.446783 0.461661 0.136865 128 128 128 255
0.000000 0.000000 1.000000 0.767360 -0.459938 0.446783 0.250000 0.250000 138 138 138 255
0.831469 -0.555571 -1.000000 0.767360 -0.459938 0.446783 0.449553 0.116663 128 128 128 255
0.831469 -0.555571 -1.000000 0.718584 -0.532938 0.446782 0.449553 0.116663 128 128 128 255
0.000000 0.000000 1.000000 0.718584 -0.532938 0.446782 0.250000 0.250000 138 138 138 255
0.773010 -0.634394 -1.000000 0.718584 -0.532938 0.446782 0.435522 0.097746 128 128 128 255
0.773010 -0.634394 -1.000000 0.662886 -0.600806 0.446782 0.435522 0.097746 128 128 128 255
0.000000 0.000000 1.000000 0.662886 -0.600806 0.446782 0.250000 0.250000 138 138 138 255
0.707106 -0.707107 -1.000000 0.662886 -0.600806 0.446782 0.419706 0.080294 128 128 128 255
0.707106 -0.707107 -1.000000 0.600805 -0.662887 0.446782 0.419706 0.080294 128 128 128 255
0.000000 0.000000 1.000000 0.600805 -0.662887 0.446782 0.250000 0.250000 138 138 138 255
0.634393 -0.773011 -1.000000 0.600805 -0.662887 0.446782 0.402254 0.064477 128 128 128 255
0.634393 -0.773011 -1.000000 0.532938 -0.718584 0.446782 0.402254 0.064477 128 128 128 255
0.000000 0.000000 1.000000 0.532938 -0.718584 0.446782 0.250000 0.250000 138 138 138 255
0.555570 -0.831470 -1.000000 0.532938 -0.718584 0.446782 0.383337 0.050447 128 128 128 255
0.555570 -0.831470 -1.000000 0.459937 -0.767361 0.446782 0.383337 0.050447 128 128 128 255
0.000000 0.000000 1.000000 0.459937 -0.767361 0.446782 0.250000 0.250000 138 138 138 255
0.471396 -0.881922 -1.000000 0.459937 -0.767361 0.446782 0.363135 0.038339 128 128 128 255
0.471396 -0.881922 -1.000000 0.382509 -0.808747 0.446783 0.363135 0.038339 128 128 128 255
0.000000 0.000000 1.000000 0.382509 -0.808747 0.446783 0.250000 0.250000 138 138 138 255
0.382683 -0.923880 -1.000000 0.382509 -0.808747 0.446783 0.341844 0.028269 128 128 128 255
0.382683 -0.923880 -1.000000 0.301395 -0.842346 0.446783 0.341844 0.028269 128 128 128 255
0.000000 0.000000 1.000000 0.301395 -0.842346 0.446783 0.250000 0.250000 138 138 138 255
0.290284 -0.956941 -1.000000 0.301395 -0.842346 0.446783 0.319668 0.020334 128 128 128 255
0.290284 -0.956941 -1.000000 0.217380 -0.867831 0.446782 0.319668 0.020334 128 128 128 255
0.000000 0.000000 1.000000 0.217380 -0.867831 0.446782 0.250000 0.250000 138 138 138 255
0.195090 -0.980785 -1.000000 0.217380 -0.867831 0.446782 0.296822 0.014611 128 128 128 255
0.195090 -0.980785 -1.000000 0.131270 -0.884960 0.446782 0.296822 0.014611 128 128 128 255
0.000000 0.000000 1.000000 0.131270 -0.884960 0.446782 0.250000 0.250000 138 138 138 255
0.098016 -0.995185 -1.000000 0.131270 -0.884960 0.446782 0.273524 0.011156 128 128 128 255
0.098016 -0.995185 -1.000000 0.043898 -0.893565 0.446782 0.273524 0.011156 128 128 128 255
0.000000 0.000000 1.000000 0.043898 -0.893565 0.446782 0.250000 0.250000 138 138 138 255
-0.000001 -1.000000 -1.000000 0.043898 -0.893565 0.446782 0.250000 0.010000 128 128 128 255
-0.000001 -1.000000 -1.000000 -0.043899 -0.893565 0.446783 0.250000 0.010000 128 128 128 255
0.000000 0.000000 1.000000 -0.043899 -0.893565 0.446783 0.250000 0.250000 138 138 138 255
-0.098018 -0.995185 -1.000000 -0.043899 -0.893565 0.446783 0.226476 0.011156 128 128 128 255
-0.098018 -0.995185 -1.000000 -0.131272 -0.884959 0.446782 0.226476 0.011156 128 128 128 255
0.000000 0.000000 1.000000 -0.131272 -0.884959 0.446782 0.250000 0.250000 138 138 138 255
-0.195091 -0.980785 -1.000000 -0.131272 -0.884959 0.446782 0.203178 0.014612 128 128 128 255
-0.195091 -0.980785 -1.000000 -0.217382 -0.867831 0.446782 0.203178 0.014612 128 128 128 255
0.000000 0.000000 1.000000 -0.217382 -0.867831 0.446782 0.250000 0.250000 138 138 138 255
-0.290286 -0.956940 -1.000000 -0.217382 -0.867831 0.446782 0.180331 0.020334 128 128 128 255
-0.290286 -0.956940 -1.000000 -0.301397 -0.842345 0.446782 0.180331 0.020334 128 128 128 255
0.000000 0.000000 1.000000 -0.301397 -0.842345 0.446782 0.250000 0.250000 138 138 138 255
-0.382684 -0.923879 -1.000000 -0.301397 -0.842345 0.446782 0.158156 0.028269 128 128 128 255
-0.382684 -0.923879 -1.000000 -0.382510 -0.808747 0.446782 0.158156 0.028269 128 128 128 255
0.000000 0.000000 1.000000 -0.382510 -0.808747 0.446782 0.250000 0.250000 138 138 138 255
-0.471398 -0.881921 -1.000000 -0.382510 -0.808747 0.446782 0.136865 0.038339 128 128 128 255
-0.471398 -0.881921 -1.000000 -0.459939 -0.767360 0.446783 0.136865 0.038339 128 128 128 255
0.000000 0.000000 1.000000 -0.459939 -0.767360 0.446783 0.250000 0.250000 138 138 138 255
-0.555571 -0.831469 -1.000000 -0.459939 -0.767360 0.446783 0.116663 0.050447 128 128 128 255
-0.555571 -0.831469 -1.000000 -0.532939 -0.718583 0.446782 0.116663 0.050447 128 128 128 255
0.000000 0.000000 1.000000 -0.532939 -0.718583 0.446782 0.250000 0.250000 138 138 138 255
-0.634394 -0.773010 -1.000000 -0.532939 -0.718583 0.446782 0.097745 0.064478 128 128 128 255
-0.634394 -0.773010 -1.000000 -0.600806 -0.662886 0.446783 0.097745 0.064478 128 128 128 255
0.000000 0.000000 1.000000 -0.600806 -0.662886 0.446783 0.250000 0.250000 138 138 138 255
-0.707108 -0.707106 -1.000000 -0.600806 -0.662886 0.446783 0.080294 0.080295 128 128 128 255
-0.707108 -0.707106 -1.000000 -0.662887 -0.600804 0.446783 0.080294 0.080295 128 128 128 255
0.000000 0.000000 1.000000 -0.662887 -0.600804 0.446783 0.250000 0.250000 138 138 138 255
-0.773011 -0.634393 -1.000000 -0.662887 -0.600804 0.446783 0.064477 0.097746 128 128 128 255
-0.773011 -0.634393 -1.000000 -0.718584 -0.532938 0.446782 0.064477 0.097746 128 128 128 255
0.000000 0.000000 1.000000 -0.718584 -0.532938 0.446782 0.250000 0.250000 138 138 138 255
-0.831470 -0.555570 -1.000000 -0.718584 -0.532938 0.446782 0.050447 0.116663 128 128 128 255
-0.831470 -0.555570 -1.000000 -0.767361 -0.459938 0.446783 0.050447 0.116663 128 128 128 255
0.000000 0.000000 1.000000 -0.767361 -0.459938 0.446783 0.250000 0.250000 138 138 138 255
-0.881922 -0.471396 -1.000000 -0.767361 -0.459938 0.446783 0.038339 0.136865 128 128 128 255
-0.881922 -0.471396 -1.000000 -0.808747 -0.382509 0.446783 0.038339 0.136865 128 128 128 255
0.000000 0.000000 1.000000 -0.808747 -0.382509 0.446783 0.250000 0.250000 138 138 138 255
-0.923880 -0.382683 -1.000000 -0.808747 -0.382509 0.446783 0.028269 0.158156 128 128 128 255
-0.923880 -0.382683 -1.000000 -0.842346 -0.301395 0.446782 0.028269 0.158156 128 128 128 255
0.000000 0.000000 1.000000 -0.842346 -0.301395 0.446782 0.250000 0.250000 138 138 138 255
-0.956940 -0.290285 -1.000000 -0.842346 -0.301395 0.446782 0.020334 0.180332 128 128 128 255
-0.956940 -0.290285 -1.000000 -0.867831 -0.217380 0.446783 0.020334 0.180332 128 128 128 255
0.000000 0.000000 1.000000 -0.867831 -0.217380 0.446783 0.250000 0.250000 138 138 138 255
-0.980785 -0.195090 -1.000000 -0.867831 -0.217380 0.446783 0.014612 0.203178 128 128 128 255
-0.980785 -0.195090 -1.000000 -0.884959 -0.131272 0.446782 0.014612 0.203178 128 128 128 255
0.000000 0.000000 1.000000 -0.884959 -0.131272 0.446782 0.250000 0.250000 138 138 138 255
-0.995185 -0.098017 -1.000000 -0.884959 -0.131272 0.446782 0.011156 0.226476 128 128 128 255
-0.995185 -0.098017 -1.000000 -0.893565 -0.043898 0.446782 0.011156 0.226476 128 128 128 255
0.000000 0.000000 1.000000 -0.893565 -0.043898 0.446782 0.250000 0.250000 138 138 138 255
-1.000000 -0.000000 -1.000000 -0.893565 -0.043898 0.446782 0.010000 0.250000 128 128 128 255
-1.000000 -0.000000 -1.000000 -0.893565 0.043898 0.446782 0.010000 0.250000 128 128 128 255
0.000000 0.000000 1.000000 -0.893565 0.043898 0.446782 0.250000 0.250000 138 138 138 255
-0.995185 0.098016 -1.000000 -0.893565 0.043898 0.446782 0.011156 0.273524 128 128 128 255
-0.995185 0.098016 -1.000000 -0.884960 0.131271 0.446782 0.011156 0.273524 128 128 128 255
0.000000 0.000000 1.000000 -0.884960 0.131271 0.446782 0.250000 0.250000 138 138 138 255
-0.980785 0.195089 -1.000000 -0.884960 0.131271 0.446782 0.014611 0.296821 128 128 128 255
-0.980785 0.195089 -1.000000 -0.867832 0.217379 0.446782 0.014611 0.296821 128 128 128 255
0.000000 0.000000 1.000000 -0.867832 0.217379 0.446782 0.250000 0.250000 138 138 138 255
-0.956941 0.290284 -1.000000 -0.867832 0.217379 0.446782 0.020334 0.319668 128 128 128 255
-0.956941 0.290284 -1.000000 -0.842346 0.301395 0.446782 0.020334 0.319668 128 128 128 255
0.000000 0.000000 1.000000 -0.842346 0.301395 0.446782 0.250000 0.250000 138 138 138 255
-0.923880 0.382682 -1.000000 -0.842346 0.301395 0.446782 0.028269 0.341844 128 128 128 255
-0.923880 0.382682 -1.000000 -0.808748 0.382508 0.446783 0.028269 0.341844 128 128 128 255
0.000000 0.000000 1.000000 -0.808748 0.382508 0.446783 0.250000 0.250000 138 138 138 255
-0.881922 0.471395 -1.000000 -0.808748 0.382508 0.446783 0.038339 0.363135 128 128 128 255
-0.881922 0.471395 -1.000000 -0.767361 0.459937 0.446783 0.038339 0.363135 128 128 128 255
0.000000 0.000000 1.000000 -0.767361 0.459937 0.446783 0.250000 0.250000 138 138 138 255
-0.831471 0.555569 -1.000000 -0.767361 0.459937 0.446783 0.050447 0.383337 128 128 128 255
-0.831471 0.555569 -1.000000 -0.718584 0.532937 0.446783 0.050447 0.383337 128 128 128 255
0.000000 0.000000 1.000000 -0.718584 0.532937 0.446783 0.250000 0.250000 138 138 138 255
-0.773012 0.634392 -1.000000 -0.718584 0.532937 0.446783 0.064477 0.402254 128 128 128 255
-0.773012 0.634392 -1.000000 -0.662888 0.600804 0.446782 0.064477 0.402254 128 128 128 255
0.000000 0.000000 1.000000 -0.662888 0.600804 0.446782 0.250000 0.250000 138 138 138 255
-0.707108 0.707105 -1.000000 -0.662888 0.600804 0.446782 0.080294 0.419705 128 128 128 255
-0.707108 0.707105 -1.000000 -0.600806 0.662885 0.446783 0.080294 0.419705 128 128 128 255
0.000000 0.000000 1.000000 -0.600806 0.662885 0.446783 0.250000 0.250000 138 138 138 255
-0.634395 0.773009 -1.000000 -0.600806 0.662885 0.446783 0.097745 0.435522 128 128 128 255
-0.634395 0.773009 -1.000000 -0.532940 0.718582 0.446782 0.097745 0.435522 128 128 128 255
0.000000 0.000000 1.000000 -0.532940 0.718582 0.446782 0.250000 0.250000 138 138 138 255
-0.555572 0.831468 -1.000000 -0.532940 0.718582 0.446782 0.116663 0.449552 128 128 128 255
-0.555572 0.831468 -1.000000 -0.459940 0.767359 0.446783 0.116663 0.449552 128 128 128 255
0.000000 0.000000 1.000000 -0.459940 0.767359 0.446783 0.250000 0.250000 138 138 138 255
-0.471399 0.881920 -1.000000 -0.459940 0.767359 0.446783 0.136864 0.461661 128 128 128 255
-0.471399 0.881920 -1.000000 -0.382511 0.808746 0.446783 0.136864 0.461661 128 128 128 255
0.000000 0.000000 1.000000 -0.382511 0.808746 0.446783 0.250000 0.250000 138 138 138 255
-0.382686 0.923878 -1.000000 -0.382511 0.808746 0.446783 0.158155 0.471731 128 128 128 255
-0.382686 0.923878 -1.000000 -0.301399 0.842345 0.446783 0.158155 0.471731 128 128 128 255
0.000000 0.000000 1.000000 -0.301399 0.842345 0.446783 0.250000 0.250000 138 138 138 255
-0.290288 0.956939 -1.000000 -0.301399 0.842345 0.446783 0.180331 0.479665 128 128 128 255
-0.290288 0.956939 -1.000000 -0.217383 0.867831 0.446782 0.180331 0.479665 128 128 128 255
0.000000 0.000000 1.000000 -0.217383 0.867831 0.446782 0.250000 0.250000 138 138 138 255
-0.195093 0.980785 -1.000000 -0.217383 0.867831 0.446782 0.203178 0.485388 128 128 128 255
-0.195093 0.980785 -1.000000 -0.131274 0.884959 0.446782 0.203178 0.485388 128 128 128 255
0.000000 0.000000 1.000000 -0.131274 0.884959 0.446782 0.250000 0.250000 138 138 138 255
-0.098021 0.995184 -1.000000 -0.131274 0.884959 0.446782 0.226475 0.488844 128 128 128 255
-0.098021 0.995184 -1.000000 -0.043900 0.893565 0.446782 0.226475 0.488844 128 128 128 255
0.000000 0.000000 1.000000 -0.043900 0.893565 0.446782 0.250000 0.250000 138 138 138 255
0.000000 1.000000 -1.000000 -0.043900 0.893565 0.446782 0.250000 0.490000 128 128 128 255
0.000000 1.000000 -1.000000 -0.000000 0.000000 -1.000000 0.750000 0.490000 128 128 128 255
0.098017 0.995185 -1.000000 -0.000000 0.000000 -1.000000 0.773524 0.488844 128 128 128 255
0.195090 0.980785 -1.000000 -0.000000 0.000000 -1.000000 0.796822 0.485388 128 128 128 255
0.290285 0.956940 -1.000000 -0.000000 0.000000 -1.000000 0.819668 0.479666 128 128 128 255
0.382683 0.923880 -1.000000 -0.000000 0.000000 -1.000000 0.841844 0.471731 128 128 128 255
0.471397 0.881921 -1.000000 -0.000000 0.000000 -1.000000 0.863135 0.461661 128 128 128 255
0.555570 0.831470 -1.000000 -0.000000 0.000000 -1.000000 0.883337 0.449553 128 128 128 255
0.634393 0.773010 -1.000000 -0.000000 0.000000 -1.000000 0.902254 0.435522 128 128 128 255
0.707107 0.707107 -1.000000 -0.000000 0.000000 -1.000000 0.919706 0.419706 128 128 128 255
0.773010 0.634393 -1.000000 -0.000000 0.000000 -1.000000 0.935522 0.402254 128 128 128 255
0.831470 0.555570 -1.000000 -0.000000 0.000000 -1.000000 0.949553 0.383337 128 128 128 255
0.881921 0.471397 -1.000000 -0.000000 0.000000 -1.000000 0.961661 0.363135 128 128 128 255
0.923880 0.382683 -1.000000 -0.000000 0.000000 -1.000000 0.971731 0.341844 128 128 128 255
0.956940 0.290285 -1.000000 -0.000000 0.000000 -1.000000 0.979666 0.319668 128 128 128 255
0.980785 0.195090 -1.000000 -0.000000 0.000000 -1.000000 0.985388 0.296822 128 128 128 255
0.995185 0.098017 -1.000000 -0.000000 0.000000 -1.000000 0.988844 0.273524 128 128 128 255
1.000000 -0.000000 -1.000000 -0.000000 0.000000 -1.000000 0.990000 0.250000 128 128 128 255
0.995185 -0.098017 -1.000000 -0.000000 0.000000 -1.000000 0.988844 0.226476 128 128 128 255
0.980785 -0.195091 -1.000000 -0.000000 0.000000 -1.000000 0.985388 0.203178 128 128 128 255
0.956940 -0.290285 -1.000000 -0.000000 0.000000 -1.000000 0.979666 0.180332 128 128 128 255
0.923879 -0.382684 -1.000000 -0.000000 0.000000 -1.000000 0.971731 0.158156 128 128 128 255
0.881921 -0.471397 -1.000000 -0.000000 0.000000 -1.000000 0.961661 0.136865 128 128 128 255
0.831469 -0.555571 -1.000000 -0.000000 0.000000 -1.000000 0.949553 0.116663 128 128 128 255
0.773010 -0.634394 -1.000000 -0.000000 0.000000 -1.000000 0.935522 0.097746 128 128 128 255
0.707106 -0.707107 -1.000000 -0.000000 0.000000 -1.000000 0.919706 0.080294 128 128 128 255
0.634393 -0.773011 -1.000000 -0.000000 0.000000 -1.000000 0.902254 0.064477 128 128 128 255
0.555570 -0.831470 -1.000000 -0.000000 0.000000 -1.000000 0.883337 0.050447 128 128 128 255
0.471396 -0.881922 -1.000000 -0.000000 0.000000 -1.000000 0.863135 0.038339 128 128 128 255
0.382683 -0.923880 -1.000000 -0.000000 0.000000 -1.000000 0.841844 0.028269 128 128 128 255
0.290284 -0.956941 -1.000000 -0.000000 0.000000 -1.000000 0.819668 0.020334 128 128 128 255
0.195090 -0.980785 -1.000000 -0.000000 0.000000 -1.000000 0.796821 0.014611 128 128 128 255
0.098016 -0.995185 -1.000000 -0.000000 0.000000 -1.000000 0.773524 0.011156 128 128 128 255
-0.000001 -1.000000 -1.000000 -0.000000 0.000000 -1.000000 0.750000 0.010000 128 128 128 255
-0.098018 -0.995185 -1.000000 -0.000000 0.000000 -1.000000 0.726476 0.011156 128 128 128 255
-0.195091 -0.980785 -1.000000 -0.000000 0.000000 -1.000000 0.703178 0.014612 128 128 128 255
-0.290286 -0.956940 -1.000000 -0.000000 0.000000 -1.000000 0.680331 0.020334 128 128 128 255
-0.382684 -0.923879 -1.000000 -0.000000 0.000000 -1.000000 0.658156 0.028269 128 128 128 255
-0.471398 -0.881921 -1.000000 -0.000000 0.000000 -1.000000 0.636865 0.038339 128 128 128 255
-0.555571 -0.831469 -1.000000 -0.000000 0.000000 -1.000000 0.616663 0.050447 128 128 128 255
-0.634394 -0.773010 -1.000000 -0.000000 0.000000 -1.000000 0.597745 0.064478 128 128 128 255
-0.707108 -0.707106 -1.000000 -0.000000 0.000000 -1.000000 0.580294 0.080295 128 128 128 255
-0.773011 -0.634393 -1.000000 -0.000000 0.000000 -1.000000 0.564477 0.097746 128 128 128 255
-0.831470 -0.555570 -1.000000 -0.000000 0.000000 -1.000000 0.550447 0.116663 128 128 128 255
-0.881922 -0.471396 -1.000000 -0.000000 0.000000 -1.000000 0.538339 0.136865 128 128 128 255
-0.923880 -0.382683 -1.000000 -0.000000 0.000000 -1.000000 0.528269 0.158156 128 128 128 255
-0.956940 -0.290285 -1.000000 -0.000000 0.000000 -1.000000 0.520334 0.180332 128 128 128 255
-0.980785 -0.195090 -1.000000 -0.000000 0.000000 -1.000000 0.514612 0.203178 128 128 128 255
-0.995185 -0.098017 -1.000000 -0.000000 0.000000 -1.000000 0.511156 0.226476 128 128 128 255
-1.000000 -0.000000 -1.000000 -0.000000 0.000000 -1.000000 0.510000 0.250000 128 128 128 255
-0.995185 0.098016 -1.000000 -0.000000 0.000000 -1.000000 0.511156 0.273524 128 128 128 255
-0.980785 0.195089 -1.000000 -0.000000 0.000000 -1.000000 0.514611 0.296821 128 128 128 255
-0.956941 0.290284 -1.000000 -0.000000 0.000000 -1.000000 0.520334 0.319668 128 128 128 255
-0.923880 0.382682 -1.000000 -0.000000 0.000000 -1.000000 0.528269 0.341844 128 128 128 255
-0.881922 0.471395 -1.000000 -0.000000 0.000000 -1.000000 0.538339 0.363135 128 128 128 255
-0.831471 0.555569 -1.000000 -0.000000 0.000000 -1.000000 0.550447 0.383337 128 128 128 255
-0.773012 0.634392 -1.000000 -0.000000 0.000000 -1.000000 0.564477 0.402254 128 128 128 255
-0.707108 0.707105 -1.000000 -0.000000 0.000000 -1.000000 0.580294 0.419705 128 128 128 255
-0.634395 0.773009 -1.000000 -0.000000 0.000000 -1.000000 0.597745 0.435522 128 128 128 255
-0.555572 0.831468 -1.000000 -0.000000 0.000000 -1.000000 0.616663 0.449552 128 128 128 255
-0.471399 0.881920 -1.000000 -0.000000 0.000000 -1.000000 0.636864 0.461661 128 128 128 255
-0.382686 0.923878 -1.000000 -0.000000 0.000000 -1.000000 0.658155 0.471731 128 128 128 255
-0.290288 0.956939 -1.000000 -0.000000 0.000000 -1.000000 0.680331 0.479665 128 128 128 255
-0.195093 0.980785 -1.000000 -0.000000 0.000000 -1.000000 0.703178 0.485388 128 128 128 255
-0.098021 0.995184 -1.000000 -0.000000 0.000000 -1.000000 0.726475 0.488844 128 128 128 255
3 0 1 2
3 3 4 5
3 6 7 8
3 9 10 11
3 12 13 14
3 15 16 17
3 18 19 20
3 21 22 23
3 24 25 26
3 27 28 29
3 30 31 32
3 33 34 35
3 36 37 38
3 39 40 41
3 42 43 44
3 45 46 47
3 48 49 50
3 51 52 53
3 54 55 56
3 57 58 59
3 60 61 62
3 63 64 65
3 66 67 68
3 69 70 71
3 72 73 74
3 75 76 77
3 78 79 80
3 81 82 83
3 84 85 86
3 87 88 89
3 90 91 92
3 93 94 95
3 96 97 98
3 99 100 101
3 102 103 104
3 105 106 107
3 108 109 110
3 111 112 113
3 114 115 116
3 117 118 119
3 120 121 122
3 123 124 125
3 126 127 128
3 129 130 131
3 132 133 134
3 135 136 137
3 138 139 140
3 141 142 143
3 144 145 146
3 147 148 149
3 150 151 152
3 153 154 155
3 156 157 158
3 159 160 161
3 162 163 164
3 165 166 167
3 168 169 170
3 171 172 173
3 174 175 176
3 177 178 179
3 180 181 182
3 183 184 185
3 186 187 188
3 189 190 191
64 192 193 194 195 196 197 198 199 200 201 202 203 204 205 206 207 208 209 210 211 212 213 214 215 216 217 218 219 220 221 222 223 224 225 226 227 228 229 230 231 232 233 234 235 236 237 238 239 240 241 242 243 244 245 246 247 248 249 250 251 252 253 254 255
