ply
format ascii 1.0
comment Created by Blender 2.82 (sub 7) - www.blender.org, source file: ''
element vertex 384
property float x
property float y
property float z
property float nx
property float ny
property float nz
property float s
property float t
property uchar red
property uchar green
property uchar blue
property uchar alpha
element face 66
property list uchar uint vertex_indices
end_header
0.000000 1.000000 -1.000000 0.049068 0.998795 0.000000 1.000000 0.500000 128 128 128 255
0.000000 1.000000 1.000000 0.049068 0.998795 0.000000 1.000000 1.000000 128 128 128 255
0.098017 0.995185 1.000000 0.049068 0.998795 0.000000 0.984375 1.000000 128 128 128 255
0.098017 0.995185 -1.000000 0.049068 0.998795 0.000000 0.984375 0.500000 128 128 128 255
0.098017 0.995185 -1.000000 0.146731 0.989177 0.000000 0.984375 0.500000 128 128 128 255
0.098017 0.995185 1.000000 0.146731 0.989177 0.000000 0.984375 1.000000 128 128 128 255
0.195090 0.980785 1.000000 0.146731 0.989177 0.000000 0.968750 1.000000 128 128 128 255
0.195090 0.980785 -1.000000 0.146731 0.989177 0.000000 0.968750 0.500000 128 128 128 255
0.195090 0.980785 -1.000000 0.242980 0.970031 0.000000 0.968750 0.500000 128 128 128 255
0.195090 0.980785 1.000000 0.242980 0.970031 0.000000 0.968750 1.000000 128 128 128 255
0.290285 0.956940 1.000000 0.242980 0.970031 0.000000 0.953125 1.000000 128 128 128 255
0.290285 0.956940 -1.000000 0.242980 0.970031 0.000000 0.953125 0.500000 128 128 128 255
0.290285 0.956940 -1.000000 0.336890 0.941544 0.000000 0.953125 0.500000 128 128 128 255
0.290285 0.956940 1.000000 0.336890 0.941544 0.000000 0.953125 1.000000 128 128 128 255
0.382683 0.923880 1.000000 0.336890 0.941544 0.000000 0.937500 1.000000 128 128 128 255
0.382683 0.923880 -1.000000 0.336890 0.941544 0.000000 0.937500 0.500000 128 128 128 255
0.382683 0.923880 -1.000000 0.427555 0.903989 0.000000 0.937500 0.500000 128 128 128 255
0.382683 0.923880 1.000000 0.427555 0.903989 0.000000 0.937500 1.000000 128 128 128 255
0.471397 0.881921 1.000000 0.427555 0.903989 0.000000 0.921875 1.000000 128 128 128 255
0.471397 0.881921 -1.000000 0.427555 0.903989 0.000000 0.921875 0.500000 128 128 128 255
0.471397 0.881921 -1.000000 0.514103 0.857729 0.000000 0.921875 0.500000 128 128 128 255
0.471397 0.881921 1.000000 0.514103 0.857729 0.000000 0.921875 1.000000 128 128 128 255
0.555570 0.831470 1.000000 0.514103 0.857729 0.000000 0.906250 1.000000 128 128 128 255
0.555570 0.831470 -1.000000 0.514103 0.857729 0.000000 0.906250 0.500000 128 128 128 255
0.555570 0.831470 -1.000000 0.595699 0.803208 0.000000 0.906250 0.500000 128 128 128 255
0.555570 0.831470 1.000000 0.595699 0.803208 0.000000 0.906250 1.000000 128 128 128 255
0.634393 0.773010 1.000000 0.595699 0.803208 0.000000 0.890625 1.000000 128 128 128 255
0.634393 0.773010 -1.000000 0.595699 0.803208 0.000000 0.890625 0.500000 128 128 128 255
0.634393 0.773010 -1.000000 0.671559 0.740951 0.000000 0.890625 0.500000 128 128 128 255
0.634393 0.773010 1.000000 0.671559 0.740951 0.000000 0.890625 1.000000 128 128 128 255
0.707107 0.707107 1.000000 0.671559 0.740951 0.000000 0.875000 1.000000 128 128 128 255
0.707107 0.707107 -1.000000 0.671559 0.740951 0.000000 0.875000 0.500000 128 128 128 255
0.707107 0.707107 -1.000000 0.740951 0.671559 0.000000 0.875000 0.500000 128 128 128 255
0.707107 0.707107 1.000000 0.740951 0.671559 0.000000 0.875000 1.000000 128 128 128 255
0.773010 0.634393 1.000000 0.740951 0.671559 0.000000 0.859375 1.000000 128 128 128 255
0.773010 0.634393 -1.000000 0.740951 0.671559 0.000000 0.859375 0.500000 128 128 128 255
0.773010 0.634393 -1.000000 0.803207 0.595699 0.000000 0.859375 0.500000 128 128 128 255
0.773010 0.634393 1.000000 0.803207 0.595699 0.000000 0.859375 1.000000 128 128 128 255
0.831470 0.555570 1.000000 0.803207 0.595699 0.000000 0.843750 1.000000 128 128 128 255
0.831470 0.555570 -1.000000 0.803207 0.595699 0.000000 0.843750 0.500000 128 128 128 255
0.831470 0.555570 -1.000000 0.857729 0.514103 0.000000 0.843750 0.500000 128 128 128 255
0.831470 0.555570 1.000000 0.857729 0.514103 0.000000 0.843750 1.000000 128 128 128 255
0.881921 0.471397 1.000000 0.857729 0.514103 0.000000 0.828125 1.000000 128 128 128 255
0.881921 0.471397 -1.000000 0.857729 0.514103 0.000000 0.828125 0.500000 128 128 128 255
0.881921 0.471397 -1.000000 0.903989 0.427555 0.000000 0.828125 0.500000 128 128 128 255
0.881921 0.471397 1.000000 0.903989 0.427555 0.000000 0.828125 1.000000 128 128 128 255
0.923880 0.382683 1.000000 0.903989 0.427555 0.000000 0.812500 1.000000 128 128 128 255
0.923880 0.382683 -1.000000 0.903989 0.427555 0.000000 0.812500 0.500000 128 128 128 255
0.923880 0.382683 -1.000000 0.941544 0.336890 0.000000 0.812500 0.500000 128 128 128 255
0.923880 0.382683 1.000000 0.941544 0.336890 0.000000 0.812500 1.000000 128 128 128 255
0.956940 0.290285 1.000000 0.941544 0.336890 0.000000 0.796875 1.000000 128 128 128 255
0.956940 0.290285 -1.000000 0.941544 0.336890 0.000000 0.796875 0.500000 128 128 128 255
0.956940 0.290285 -1.000000 0.970031 0.242980 0.000000 0.796875 0.500000 128 128 128 255
0.956940 0.290285 1.000000 0.970031 0.242980 0.000000 0.796875 1.000000 128 128 128 255
0.980785 0.195090 1.000000 0.970031 0.242980 0.000000 0.781250 1.000000 128 128 128 255
0.980785 0.195090 -1.000000 0.970031 0.242980 0.000000 0.781250 0.500000 128 128 128 255
0.980785 0.195090 -1.000000 0.989177 0.146730 0.000000 0.781250 0.500000 128 128 128 255
0.980785 0.195090 1.000000 0.989177 0.146730 0.000000 0.781250 1.000000 128 128 128 255
0.995185 0.098017 1.000000 0.989177 0.146730 0.000000 0.765625 1.000000 128 128 128 255
0.995185 0.098017 -1.000000 0.989177 0.146730 0.000000 0.765625 0.500000 128 128 128 255
0.995185 0.098017 -1.000000 0.998795 0.049068 0.000000 0.765625 0.500000 128 128 128 255
0.995185 0.098017 1.000000 0.998795 0.049068 0.000000 0.765625 1.000000 128 128 128 255
1.000000 -0.000000 1.000000 0.998795 0.049068 0.000000 0.750000 1.000000 128 128 128 255
1.000000 -0.000000 -1.000000 0.998795 0.049068 0.000000 0.750000 0.500000 128 128 128 255
1.000000 -0.000000 -1.000000 0.998795 -0.049068 0.000000 0.750000 0.500000 128 128 128 255
1.000000 -0.000000 1.000000 0.998795 -0.049068 0.000000 0.750000 1.000000 128 128 128 255
0.995185 -0.098017 1.000000 0.998795 -0.049068 0.000000 0.734375 1.000000 128 128 128 255
0.995185 -0.098017 -1.000000 0.998795 -0.049068 0.000000 0.734375 0.500000 128 128 128 255
0.995185 -0.098017 -1.000000 0.989177 -0.146731 0.000000 0.734375 0.500000 128 128 128 255
0.995185 -0.098017 1.000000 0.989177 -0.146731 0.000000 0.734375 1.000000 128 128 128 255
0.980785 -0.195091 1.000000 0.989177 -0.146731 0.000000 0.718750 1.000000 128 128 128 255
0.980785 -0.195091 -1.000000 0.989177 -0.146731 0.000000 0.718750 0.500000 128 128 128 255
0.980785 -0.195091 -1.000000 0.970031 -0.242981 0.000000 0.718750 0.500000 128 128 128 255
0.980785 -0.195091 1.000000 0.970031 -0.242981 0.000000 0.718750 1.000000 128 128 128 255
0.956940 -0.290285 1.000000 0.970031 -0.242981 0.000000 0.703125 1.000000 128 128 128 255
0.956940 -0.290285 -1.000000 0.970031 -0.242981 0.000000 0.703125 0.500000 128 128 128 255
0.956940 -0.290285 -1.000000 0.941544 -0.336890 0.000000 0.703125 0.500000 128 128 128 255
0.956940 -0.290285 1.000000 0.941544 -0.336890 0.000000 0.703125 1.000000 128 128 128 255
0.923879 -0.382684 1.000000 0.941544 -0.336890 0.000000 0.687500 1.000000 128 128 128 255
0.923879 -0.382684 -1.000000 0.941544 -0.336890 0.000000 0.687500 0.500000 128 128 128 255
0.923879 -0.382684 -1.000000 0.903989 -0.427555 0.000000 0.687500 0.500000 128 128 128 255
0.923879 -0.382684 1.000000 0.903989 -0.427555 0.000000 0.687500 1.000000 128 128 128 255
0.881921 -0.471397 1.000000 0.903989 -0.427555 0.000000 0.671875 1.000000 128 128 128 255
0.881921 -0.471397 -1.000000 0.903989 -0.427555 0.000000 0.671875 0.500000 128 128 128 255
0.881921 -0.471397 -1.000000 0.857728 -0.514103 0.000000 0.671875 0.500000 128 128 128 255
0.881921 -0.471397 1.000000 0.857728 -0.514103 0.000000 0.671875 1.000000 128 128 128 255
0.831469 -0.555571 1.000000 0.857728 -0.514103 0.000000 0.656250 1.000000 128 128 128 255
0.831469 -0.555571 -1.000000 0.857728 -0.514103 0.000000 0.656250 0.500000 128 128 128 255
0.831469 -0.555571 -1.000000 0.803207 -0.595699 0.000000 0.656250 0.500000 128 128 128 255
0.831469 -0.555571 1.000000 0.803207 -0.595699 0.000000 0.656250 1.000000 128 128 128 255
0.773010 -0.634394 1.000000 0.803207 -0.595699 0.000000 0.640625 1.000000 128 128 128 255
0.773010 -0.634394 -1.000000 0.803207 -0.595699 0.000000 0.640625 0.500000 128 128 128 255
0.773010 -0.634394 -1.000000 0.740951 -0.671559 0.000000 0.640625 0.500000 128 128 128 255
0.773010 -0.634394 1.000000 0.740951 -0.671559 0.000000 0.640625 1.000000 128 128 128 255
0.707106 -0.707107 1.000000 0.740951 -0.671559 0.000000 0.625000 1.000000 128 128 128 255
0.707106 -0.707107 -1.000000 0.740951 -0.671559 0.000000 0.625000 0.500000 128 128 128 255
0.707106 -0.707107 -1.000000 0.671558 -0.740952 0.000000 0.625000 0.500000 128 128 128 255
0.707106 -0.707107 1.000000 0.671558 -0.740952 0.000000 0.625000 1.000000 128 128 128 255
0.634393 -0.773011 1.000000 0.671558 -0.740952 0.000000 0.609375 1.000000 128 128 128 255
0.634393 -0.773011 -1.000000 0.671558 -0.740952 0.000000 0.609375 0.500000 128 128 128 255
0.634393 -0.773011 -1.000000 0.595699 -0.803208 0.000000 0.609375 0.500000 128 128 128 255
0.634393 -0.773011 1.000000 0.595699 -0.803208 0.000000 0.609375 1.000000 128 128 128 255
0.555570 -0.831470 1.000000 0.595699 -0.803208 0.000000 0.593750 1.000000 128 128 128 255
0.555570 -0.831470 -1.000000 0.595699 -0.803208 0.000000 0.593750 0.500000 128 128 128 255
0.555570 -0.831470 -1.000000 0.514102 -0.857729 0.000000 0.593750 0.500000 128 128 128 255
0.555570 -0.831470 1.000000 0.514102 -0.857729 0.000000 0.593750 1.000000 128 128 128 255
0.471396 -0.881922 1.000000 0.514102 -0.857729 0.000000 0.578125 1.000000 128 128 128 255
0.471396 -0.881922 -1.000000 0.514102 -0.857729 0.000000 0.578125 0.500000 128 128 128 255
0.471396 -0.881922 -1.000000 0.427555 -0.903989 0.000000 0.578125 0.500000 128 128 128 255
0.471396 -0.881922 1.000000 0.427555 -0.903989 0.000000 0.578125 1.000000 128 128 128 255
0.382683 -0.923880 1.000000 0.427555 -0.903989 0.000000 0.562500 1.000000 128 128 128 255
0.382683 -0.923880 -1.000000 0.427555 -0.903989 0.000000 0.562500 0.500000 128 128 128 255
0.382683 -0.923880 -1.000000 0.336889 -0.941544 0.000000 0.562500 0.500000 128 128 128 255
0.382683 -0.923880 1.000000 0.336889 -0.941544 0.000000 0.562500 1.000000 128 128 128 255
0.290284 -0.956941 1.000000 0.336889 -0.941544 0.000000 0.546875 1.000000 128 128 128 255
0.290284 -0.956941 -1.000000 0.336889 -0.941544 0.000000 0.546875 0.500000 128 128 128 255
0.290284 -0.956941 -1.000000 0.242980 -0.970031 0.000000 0.546875 0.500000 128 128 128 255
0.290284 -0.956941 1.000000 0.242980 -0.970031 0.000000 0.546875 1.000000 128 128 128 255
0.195090 -0.980785 1.000000 0.242980 -0.970031 0.000000 0.531250 1.000000 128 128 128 255
0.195090 -0.980785 -1.000000 0.242980 -0.970031 0.000000 0.531250 0.500000 128 128 128 255
0.195090 -0.980785 -1.000000 0.146729 -0.989177 0.000000 0.531250 0.500000 128 128 128 255
0.195090 -0.980785 1.000000 0.146729 -0.989177 0.000000 0.531250 1.000000 128 128 128 255
0.098016 -0.995185 1.000000 0.146729 -0.989177 0.000000 0.515625 1.000000 128 128 128 255
0.098016 -0.995185 -1.000000 0.146729 -0.989177 0.000000 0.515625 0.500000 128 128 128 255
0.098016 -0.995185 -1.000000 0.049067 -0.998796 0.000000 0.515625 0.500000 128 128 128 255
0.098016 -0.995185 1.000000 0.049067 -0.998796 0.000000 0.515625 1.000000 128 128 128 255
-0.000001 -1.000000 1.000000 0.049067 -0.998796 0.000000 0.500000 1.000000 128 128 128 255
-0.000001 -1.000000 -1.000000 0.049067 -0.998796 0.000000 0.500000 0.500000 128 128 128 255
-0.000001 -1.000000 -1.000000 -0.049068 -0.998795 0.000000 0.500000 0.500000 128 128 128 255
-0.000001 -1.000000 1.000000 -0.049068 -0.998795 0.000000 0.500000 1.000000 128 128 128 255
-0.098018 -0.995185 1.000000 -0.049068 -0.998795 0.000000 0.484375 1.000000 128 128 128 255
-0.098018 -0.995185 -1.000000 -0.049068 -0.998795 0.000000 0.484375 0.500000 128 128 128 255
-0.098018 -0.995185 -1.000000 -0.146731 -0.989176 0.000000 0.484375 0.500000 128 128 128 255
-0.098018 -0.995185 1.000000 -0.146731 -0.989176 0.000000 0.484375 1.000000 128 128 128 255
-0.195091 -0.980785 1.000000 -0.146731 -0.989176 0.000000 0.468750 1.000000 128 128 128 255
-0.195091 -0.980785 -1.000000 -0.146731 -0.989176 0.000000 0.468750 0.500000 128 128 128 255
-0.195091 -0.980785 -1.000000 -0.242981 -0.970031 0.000000 0.468750 0.500000 128 128 128 255
-0.195091 -0.980785 1.000000 -0.242981 -0.970031 0.000000 0.468750 1.000000 128 128 128 255
-0.290286 -0.956940 1.000000 -0.242981 -0.970031 0.000000 0.453125 1.000000 128 128 128 255
-0.290286 -0.956940 -1.000000 -0.242981 -0.970031 0.000000 0.453125 0.500000 128 128 128 255
-0.290286 -0.956940 -1.000000 -0.336891 -0.941544 0.000000 0.453125 0.500000 128 128 128 255
-0.290286 -0.956940 1.000000 -0.336891 -0.941544 0.000000 0.453125 1.000000 128 128 128 255
-0.382684 -0.923879 1.000000 -0.336891 -0.941544 0.000000 0.437500 1.000000 128 128 128 255
-0.382684 -0.923879 -1.000000 -0.336891 -0.941544 0.000000 0.437500 0.500000 128 128 128 255
-0.382684 -0.923879 -1.000000 -0.427556 -0.903989 0.000000 0.437500 0.500000 128 128 128 255
-0.382684 -0.923879 1.000000 -0.427556 -0.903989 0.000000 0.437500 1.000000 128 128 128 255
-0.471398 -0.881921 1.000000 -0.427556 -0.903989 0.000000 0.421875 1.000000 128 128 128 255
-0.471398 -0.881921 -1.000000 -0.427556 -0.903989 0.000000 0.421875 0.500000 128 128 128 255
-0.471398 -0.881921 -1.000000 -0.514104 -0.857728 0.000000 0.421875 0.500000 128 128 128 255
-0.471398 -0.881921 1.000000 -0.514104 -0.857728 0.000000 0.421875 1.000000 128 128 128 255
-0.555571 -0.831469 1.000000 -0.514104 -0.857728 0.000000 0.406250 1.000000 128 128 128 255
-0.555571 -0.831469 -1.000000 -0.514104 -0.857728 0.000000 0.406250 0.500000 128 128 128 255
-0.555571 -0.831469 -1.000000 -0.595700 -0.803207 0.000000 0.406250 0.500000 128 128 128 255
-0.555571 -0.831469 1.000000 -0.595700 -0.803207 0.000000 0.406250 1.000000 128 128 128 255
-0.634394 -0.773010 1.000000 -0.595700 -0.803207 0.000000 0.390625 1.000000 128 128 128 255
-0.634394 -0.773010 -1.000000 -0.595700 -0.803207 0.000000 0.390625 0.500000 128 128 128 255
-0.634394 -0.773010 -1.000000 -0.671560 -0.740951 0.000000 0.390625 0.500000 128 128 128 255
-0.634394 -0.773010 1.000000 -0.671560 -0.740951 0.000000 0.390625 1.000000 128 128 128 255
-0.707108 -0.707106 1.000000 -0.671560 -0.740951 0.000000 0.375000 1.000000 128 128 128 255
-0.707108 -0.707106 -1.000000 -0.671560 -0.740951 0.000000 0.375000 0.500000 128 128 128 255
-0.707108 -0.707106 -1.000000 -0.740952 -0.671558 0.000000 0.375000 0.500000 128 128 128 255
-0.707108 -0.707106 1.000000 -0.740952 -0.671558 0.000000 0.375000 1.000000 128 128 128 255
-0.773011 -0.634393 1.000000 -0.740952 -0.671558 0.000000 0.359375 1.000000 128 128 128 255
-0.773011 -0.634393 -1.000000 -0.740952 -0.671558 0.000000 0.359375 0.500000 128 128 128 255
-0.773011 -0.634393 -1.000000 -0.803208 -0.595699 0.000000 0.359375 0.500000 128 128 128 255
-0.773011 -0.634393 1.000000 -0.803208 -0.595699 0.000000 0.359375 1.000000 128 128 128 255
-0.831470 -0.555570 1.000000 -0.803208 -0.595699 0.000000 0.343750 1.000000 128 128 128 255
-0.831470 -0.555570 -1.000000 -0.803208 -0.595699 0.000000 0.343750 0.500000 128 128 128 255
-0.831470 -0.555570 -1.000000 -0.857729 -0.514102 0.000000 0.343750 0.500000 128 128 128 255
-0.831470 -0.555570 1.000000 -0.857729 -0.514102 0.000000 0.343750 1.000000 128 128 128 255
-0.881922 -0.471396 1.000000 -0.857729 -0.514102 0.000000 0.328125 1.000000 128 128 128 255
-0.881922 -0.471396 -1.000000 -0.857729 -0.514102 0.000000 0.328125 0.500000 128 128 128 255
-0.881922 -0.471396 -1.000000 -0.903989 -0.427555 0.000000 0.328125 0.500000 128 128 128 255
-0.881922 -0.471396 1.000000 -0.903989 -0.427555 0.000000 0.328125 1.000000 128 128 128 255
-0.923880 -0.382683 1.000000 -0.903989 -0.427555 0.000000 0.312500 1.000000 128 128 128 255
-0.923880 -0.382683 -1.000000 -0.903989 -0.427555 0.000000 0.312500 0.500000 128 128 128 255
-0.923880 -0.382683 -1.000000 -0.941544 -0.336889 0.000000 0.312500 0.500000 128 128 128 255
-0.923880 -0.382683 1.000000 -0.941544 -0.336889 0.000000 0.312500 1.000000 128 128 128 255
-0.956940 -0.290285 1.000000 -0.941544 -0.336889 0.000000 0.296875 1.000000 128 128 128 255
-0.956940 -0.290285 -1.000000 -0.941544 -0.336889 0.000000 0.296875 0.500000 128 128 128 255
-0.956940 -0.290285 -1.000000 -0.970031 -0.242980 0.000000 0.296875 0.500000 128 128 128 255
-0.956940 -0.290285 1.000000 -0.970031 -0.242980 0.000000 0.296875 1.000000 128 128 128 255
-0.980785 -0.195090 1.000000 -0.970031 -0.242980 0.000000 0.281250 1.000000 128 128 128 255
-0.980785 -0.195090 -1.000000 -0.970031 -0.242980 0.000000 0.281250 0.500000 128 128 128 255
-0.980785 -0.195090 -1.000000 -0.989176 -0.146731 0.000000 0.281250 0.500000 128 128 128 255
-0.980785 -0.195090 1.000000 -0.989176 -0.146731 0.000000 0.281250 1.000000 128 128 128 255
-0.995185 -0.098017 1.000000 -0.989176 -0.146731 0.000000 0.265625 1.000000 128 128 128 255
-0.995185 -0.098017 -1.000000 -0.989176 -0.146731 0.000000 0.265625 0.500000 128 128 128 255
-0.995185 -0.098017 -1.000000 -0.998795 -0.049068 0.000000 0.265625 0.500000 128 128 128 255
-0.995185 -0.098017 1.000000 -0.998795 -0.049068 0.000000 0.265625 1.000000 128 128 128 255
-1.000000 -0.000000 1.000000 -0.998795 -0.049068 0.000000 0.250000 1.000000 128 128 128 255
-1.000000 -0.000000 -1.000000 -0.998795 -0.049068 0.000000 0.250000 0.500000 128 128 128 255
-1.000000 -0.000000 -1.000000 -0.998795 0.049067 0.000000 0.250000 0.500000 128 128 128 255
-1.000000 -0.000000 1.000000 -0.998795 0.049067 0.000000 0.250000 1.000000 128 128 128 255
-0.995185 0.098016 1.000000 -0.998795 0.049067 0.000000 0.234375 1.000000 128 128 128 255
-0.995185 0.098016 -1.000000 -0.998795 0.049067 0.000000 0.234375 0.500000 128 128 128 255
-0.995185 0.098016 -1.000000 -0.989177 0.146730 0.000000 0.234375 0.500000 128 128 128 255
-0.995185 0.098016 1.000000 -0.989177 0.146730 0.000000 0.234375 1.000000 128 128 128 255
-0.980785 0.195089 1.000000 -0.989177 0.146730 0.000000 0.218750 1.000000 128 128 128 255
-0.980785 0.195089 -1.000000 -0.989177 0.146730 0.000000 0.218750 0.500000 128 128 128 255
-0.980785 0.195089 -1.000000 -0.970032 0.242979 0.000000 0.218750 0.500000 128 128 128 255
-0.980785 0.195089 1.000000 -0.970032 0.242979 0.000000 0.218750 1.000000 128 128 128 255
-0.956941 0.290284 1.000000 -0.970032 0.242979 0.000000 0.203125 1.000000 128 128 128 255
-0.956941 0.290284 -1.000000 -0.970032 0.242979 0.000000 0.203125 0.500000 128 128 128 255
-0.956941 0.290284 -1.000000 -0.941544 0.336889 0.000000 0.203125 0.500000 128 128 128 255
-0.956941 0.290284 1.000000 -0.941544 0.336889 0.000000 0.203125 1.000000 128 128 128 255
-0.923880 0.382682 1.000000 -0.941544 0.336889 0.000000 0.187500 1.000000 128 128 128 255
-0.923880 0.382682 -1.000000 -0.941544 0.336889 0.000000 0.187500 0.500000 128 128 128 255
-0.923880 0.382682 -1.000000 -0.903990 0.427554 0.000000 0.187500 0.500000 128 128 128 255
-0.923880 0.382682 1.000000 -0.903990 0.427554 0.000000 0.187500 1.000000 128 128 128 255
-0.881922 0.471395 1.000000 -0.903990 0.427554 0.000000 0.171875 1.000000 128 128 128 255
-0.881922 0.471395 -1.000000 -0.903990 0.427554 0.000000 0.171875 0.500000 128 128 128 255
-0.881922 0.471395 -1.000000 -0.857729 0.514101 0.000000 0.171875 0.500000 128 128 128 255
-0.881922 0.471395 1.000000 -0.857729 0.514101 0.000000 0.171875 1.000000 128 128 128 255
-0.831471 0.555569 1.000000 -0.857729 0.514101 0.000000 0.156250 1.000000 128 128 128 255
-0.831471 0.555569 -1.000000 -0.857729 0.514101 0.000000 0.156250 0.500000 128 128 128 255
-0.831471 0.555569 -1.000000 -0.803208 0.595698 0.000000 0.156250 0.500000 128 128 128 255
-0.831471 0.555569 1.000000 -0.803208 0.595698 0.000000 0.156250 1.000000 128 128 128 255
-0.773012 0.634392 1.000000 -0.803208 0.595698 0.000000 0.140625 1.000000 128 128 128 255
-0.773012 0.634392 -1.000000 -0.803208 0.595698 0.000000 0.140625 0.500000 128 128 128 255
-0.773012 0.634392 -1.000000 -0.740953 0.671557 0.000000 0.140625 0.500000 128 128 128 255
-0.773012 0.634392 1.000000 -0.740953 0.671557 0.000000 0.140625 1.000000 128 128 128 255
-0.707108 0.707105 1.000000 -0.740953 0.671557 0.000000 0.125000 1.000000 128 128 128 255
-0.707108 0.707105 -1.000000 -0.740953 0.671557 0.000000 0.125000 0.500000 128 128 128 255
-0.707108 0.707105 -1.000000 -0.671560 0.740950 0.000000 0.125000 0.500000 128 128 128 255
-0.707108 0.707105 1.000000 -0.671560 0.740950 0.000000 0.125000 1.000000 128 128 128 255
-0.634395 0.773009 1.000000 -0.671560 0.740950 0.000000 0.109375 1.000000 128 128 128 255
-0.634395 0.773009 -1.000000 -0.671560 0.740950 0.000000 0.109375 0.500000 128 128 128 255
-0.634395 0.773009 -1.000000 -0.595701 0.803206 0.000000 0.109375 0.500000 128 128 128 255
-0.634395 0.773009 1.000000 -0.595701 0.803206 0.000000 0.109375 1.000000 128 128 128 255
-0.555572 0.831468 1.000000 -0.595701 0.803206 0.000000 0.093750 1.000000 128 128 128 255
-0.555572 0.831468 -1.000000 -0.595701 0.803206 0.000000 0.093750 0.500000 128 128 128 255
-0.555572 0.831468 -1.000000 -0.514105 0.857727 0.000000 0.093750 0.500000 128 128 128 255
-0.555572 0.831468 1.000000 -0.514105 0.857727 0.000000 0.093750 1.000000 128 128 128 255
-0.471399 0.881920 1.000000 -0.514105 0.857727 0.000000 0.078125 1.000000 128 128 128 255
-0.471399 0.881920 -1.000000 -0.514105 0.857727 0.000000 0.078125 0.500000 128 128 128 255
-0.471399 0.881920 -1.000000 -0.427557 0.903988 0.000000 0.078125 0.500000 128 128 128 255
-0.471399 0.881920 1.000000 -0.427557 0.903988 0.000000 0.078125 1.000000 128 128 128 255
-0.382686 0.923878 1.000000 -0.427557 0.903988 0.000000 0.062500 1.000000 128 128 128 255
-0.382686 0.923878 -1.000000 -0.427557 0.903988 0.000000 0.062500 0.500000 128 128 128 255
-0.382686 0.923878 -1.000000 -0.336893 0.941543 0.000000 0.062500 0.500000 128 128 128 255
-0.382686 0.923878 1.000000 -0.336893 0.941543 0.000000 0.062500 1.000000 128 128 128 255
-0.290288 0.956939 1.000000 -0.336893 0.941543 0.000000 0.046875 1.000000 128 128 128 255
-0.290288 0.956939 -1.000000 -0.336893 0.941543 0.000000 0.046875 0.500000 128 128 128 255
-0.290288 0.956939 -1.000000 -0.242983 0.970030 0.000000 0.046875 0.500000 128 128 128 255
-0.290288 0.956939 1.000000 -0.242983 0.970030 0.000000 0.046875 1.000000 128 128 128 255
-0.195093 0.980785 1.000000 -0.242983 0.970030 0.000000 0.031250 1.000000 128 128 128 255
-0.195093 0.980785 -1.000000 -0.242983 0.970030 0.000000 0.031250 0.500000 128 128 128 255
0.098017 0.995185 1.000000 0.000000 0.000000 1.000000 0.273524 0.488844 128 128 128 255
0.000000 1.000000 1.000000 0.000000 0.000000 1.000000 0.250000 0.490000 128 128 128 255
-0.098021 0.995184 1.000000 0.000000 0.000000 1.000000 0.226475 0.488844 128 128 128 255
-0.195093 0.980785 1.000000 0.000000 0.000000 1.000000 0.203178 0.485388 128 128 128 255
-0.290288 0.956939 1.000000 0.000000 0.000000 1.000000 0.180331 0.479665 128 128 128 255
-0.382686 0.923878 1.000000 0.000000 0.000000 1.000000 0.158155 0.471731 128 128 128 255
-0.471399 0.881920 1.000000 0.000000 0.000000 1.000000 0.136864 0.461661 128 128 128 255
-0.555572 0.831468 1.000000 0.000000 0.000000 1.000000 0.116663 0.449552 128 128 128 255
-0.634395 0.773009 1.000000 0.000000 0.000000 1.000000 0.097745 0.435522 128 128 128 255
-0.707108 0.707105 1.000000 0.000000 0.000000 1.000000 0.080294 0.419705 128 128 128 255
-0.773012 0.634392 1.000000 0.000000 0.000000 1.000000 0.064477 0.402254 128 128 128 255
-0.831471 0.555569 1.000000 0.000000 0.000000 1.000000 0.050447 0.383337 128 128 128 255
-0.881922 0.471395 1.000000 0.000000 0.000000 1.000000 0.038339 0.363135 128 128 128 255
-0.923880 0.382682 1.000000 0.000000 0.000000 1.000000 0.028269 0.341844 128 128 128 255
-0.956941 0.290284 1.000000 0.000000 0.000000 1.000000 0.020334 0.319668 128 128 128 255
-0.980785 0.195089 1.000000 0.000000 0.000000 1.000000 0.014611 0.296821 128 128 128 255
-0.995185 0.098016 1.000000 0.000000 0.000000 1.000000 0.011156 0.273524 128 128 128 255
-1.000000 -0.000000 1.000000 0.000000 0.000000 1.000000 0.010000 0.250000 128 128 128 255
-0.995185 -0.098017 1.000000 0.000000 0.000000 1.000000 0.011156 0.226476 128 128 128 255
-0.980785 -0.195090 1.000000 0.000000 0.000000 1.000000 0.014612 0.203178 128 128 128 255
-0.956940 -0.290285 1.000000 0.000000 0.000000 1.000000 0.020334 0.180332 128 128 128 255
-0.923880 -0.382683 1.000000 0.000000 0.000000 1.000000 0.028269 0.158156 128 128 128 255
-0.881922 -0.471396 1.000000 0.000000 0.000000 1.000000 0.038339 0.136865 128 128 128 255
-0.831470 -0.555570 1.000000 0.000000 0.000000 1.000000 0.050447 0.116663 128 128 128 255
-0.773011 -0.634393 1.000000 0.000000 0.000000 1.000000 0.064477 0.097746 128 128 128 255
-0.707108 -0.707106 1.000000 0.000000 0.000000 1.000000 0.080294 0.080295 128 128 128 255
-0.634394 -0.773010 1.000000 0.000000 0.000000 1.000000 0.097745 0.064478 128 128 128 255
-0.555571 -0.831469 1.000000 0.000000 0.000000 1.000000 0.116663 0.050447 128 128 128 255
-0.471398 -0.881921 1.000000 0.000000 0.000000 1.000000 0.136865 0.038339 128 128 128 255
-0.382684 -0.923879 1.000000 0.000000 0.000000 1.000000 0.158156 0.028269 128 128 128 255
-0.290286 -0.956940 1.000000 0.000000 0.000000 1.000000 0.180331 0.020334 128 128 128 255
-0.195091 -0.980785 1.000000 0.000000 0.000000 1.000000 0.203178 0.014612 128 128 128 255
-0.098018 -0.995185 1.000000 0.000000 0.000000 1.000000 0.226476 0.011156 128 128 128 255
-0.000001 -1.000000 1.000000 0.000000 0.000000 1.000000 0.250000 0.010000 128 128 128 255
0.098016 -0.995185 1.000000 0.000000 0.000000 1.000000 0.273524 0.011156 128 128 128 255
0.195090 -0.980785 1.000000 0.000000 0.000000 1.000000 0.296822 0.014611 128 128 128 255
0.290284 -0.956941 1.000000 0.000000 0.000000 1.000000 0.319668 0.020334 128 128 128 255
0.382683 -0.923880 1.000000 0.000000 0.000000 1.000000 0.341844 0.028269 128 128 128 255
0.471396 -0.881922 1.000000 0.000000 0.000000 1.000000 0.363135 0.038339 128 128 128 255
0.555570 -0.831470 1.000000 0.000000 0.000000 1.000000 0.383337 0.050447 128 128 128 255
0.634393 -0.773011 1.000000 0.000000 0.000000 1.000000 0.402254 0.064477 128 128 128 255
0.707106 -0.707107 1.000000 0.000000 0.000000 1.000000 0.419706 0.080294 128 128 128 255
0.773010 -0.634394 1.000000 0.000000 0.000000 1.000000 0.435522 0.097746 128 128 128 255
0.831469 -0.555571 1.000000 0.000000 0.000000 1.000000 0.449553 0.116663 128 128 128 255
0.881921 -0.471397 1.000000 0.000000 0.000000 1.000000 0.461661 0.136865 128 128 128 255
0.923879 -0.382684 1.000000 0.000000 0.000000 1.000000 0.471731 0.158156 128 128 128 255
0.956940 -0.290285 1.000000 0.000000 0.000000 1.000000 0.479666 0.180332 128 128 128 255
0.980785 -0.195091 1.000000 0.000000 0.000000 1.000000 0.485388 0.203178 128 128 128 255
0.995185 -0.098017 1.000000 0.000000 0.000000 1.000000 0.488844 0.226476 128 128 128 255
1.000000 -0.000000 1.000000 0.000000 0.000000 1.000000 0.490000 0.250000 128 128 128 255
0.995185 0.098017 1.000000 0.000000 0.000000 1.000000 0.488844 0.273524 128 128 128 255
0.980785 0.195090 1.000000 0.000000 0.000000 1.000000 0.485388 0.296822 128 128 128 255
0.956940 0.290285 1.000000 0.000000 0.000000 1.000000 0.479666 0.319668 128 128 128 255
0.923880 0.382683 1.000000 0.000000 0.000000 1.000000 0.471731 0.341844 128 128 128 255
0.881921 0.471397 1.000000 0.000000 0.000000 1.000000 0.461661 0.363135 128 128 128 255
0.831470 0.555570 1.000000 0.000000 0.000000 1.000000 0.449553 0.383337 128 128 128 255
0.773010 0.634393 1.000000 0.000000 0.000000 1.000000 0.435522 0.402254 128 128 128 255
0.707107 0.707107 1.000000 0.000000 0.000000 1.000000 0.419706 0.419706 128 128 128 255
0.634393 0.773010 1.000000 0.000000 0.000000 1.000000 0.402254 0.435522 128 128 128 255
0.555570 0.831470 1.000000 0.000000 0.000000 1.000000 0.383337 0.449553 128 128 128 255
0.471397 0.881921 1.000000 0.000000 0.000000 1.000000 0.363135 0.461661 128 128 128 255
0.382683 0.923880 1.000000 0.000000 0.000000 1.000000 0.341844 0.471731 128 128 128 255
0.290285 0.956940 1.000000 0.000000 0.000000 1.000000 0.319668 0.479666 128 128 128 255
0.195090 0.980785 1.000000 0.000000 0.000000 1.000000 0.296822 0.485388 128 128 128 255
-0.195093 0.980785 -1.000000 -0.146733 0.989176 0.000000 0.031250 0.500000 128 128 128 255
-0.195093 0.980785 1.000000 -0.146733 0.989176 0.000000 0.031250 1.000000 128 128 128 255
-0.098021 0.995184 1.000000 -0.146733 0.989176 0.000000 0.015625 1.000000 128 128 128 255
-0.098021 0.995184 -1.000000 -0.146733 0.989176 0.000000 0.015625 0.500000 128 128 128 255
-0.098021 0.995184 -1.000000 -0.049070 0.998795 0.000000 0.015625 0.500000 128 128 128 255
-0.098021 0.995184 1.000000 -0.049070 0.998795 0.000000 0.015625 1.000000 128 128 128 255
0.000000 1.000000 1.000000 -0.049070 0.998795 0.000000 0.000000 1.000000 128 128 128 255
0.000000 1.000000 -1.000000 -0.049070 0.998795 0.000000 0.000000 0.500000 128 128 128 255
0.000000 1.000000 -1.000000 -0.000000 0.000000 -1.000000 0.750000 0.490000 128 128 128 255
0.098017 0.995185 -1.000000 -0.000000 0.000000 -1.000000 0.773524 0.488844 128 128 128 255
0.195090 0.980785 -1.000000 -0.000000 0.000000 -1.000000 0.796822 0.485388 128 128 128 255
0.290285 0.956940 -1.000000 -0.000000 0.000000 -1.000000 0.819668 0.479666 128 128 128 255
0.382683 0.923880 -1.000000 -0.000000 0.000000 -1.000000 0.841844 0.471731 128 128 128 255
0.471397 0.881921 -1.000000 -0.000000 0.000000 -1.000000 0.863135 0.461661 128 128 128 255
0.555570 0.831470 -1.000000 -0.000000 0.000000 -1.000000 0.883337 0.449553 128 128 128 255
0.634393 0.773010 -1.000000 -0.000000 0.000000 -1.000000 0.902254 0.435522 128 128 128 255
0.707107 0.707107 -1.000000 -0.000000 0.000000 -1.000000 0.919706 0.419706 128 128 128 255
0.773010 0.634393 -1.000000 -0.000000 0.000000 -1.000000 0.935522 0.402254 128 128 128 255
0.831470 0.555570 -1.000000 -0.000000 0.000000 -1.000000 0.949553 0.383337 128 128 128 255
0.881921 0.471397 -1.000000 -0.000000 0.000000 -1.000000 0.961661 0.363135 128 128 128 255
0.923880 0.382683 -1.000000 -0.000000 0.000000 -1.000000 0.971731 0.341844 128 128 128 255
0.956940 0.290285 -1.000000 -0.000000 0.000000 -1.000000 0.979666 0.319668 128 128 128 255
0.980785 0.195090 -1.000000 -0.000000 0.000000 -1.000000 0.985388 0.296822 128 128 128 255
0.995185 0.098017 -1.000000 -0.000000 0.000000 -1.000000 0.988844 0.273524 128 128 128 255
1.000000 -0.000000 -1.000000 -0.000000 0.000000 -1.000000 0.990000 0.250000 128 128 128 255
0.995185 -0.098017 -1.000000 -0.000000 0.000000 -1.000000 0.988844 0.226476 128 128 128 255
0.980785 -0.195091 -1.000000 -0.000000 0.000000 -1.000000 0.985388 0.203178 128 128 128 255
0.956940 -0.290285 -1.000000 -0.000000 0.000000 -1.000000 0.979666 0.180332 128 128 128 255
0.923879 -0.382684 -1.000000 -0.000000 0.000000 -1.000000 0.971731 0.158156 128 128 128 255
0.881921 -0.471397 -1.000000 -0.000000 0.000000 -1.000000 0.961661 0.136865 128 128 128 255
0.831469 -0.555571 -1.000000 -0.000000 0.000000 -1.000000 0.949553 0.116663 128 128 128 255
0.773010 -0.634394 -1.000000 -0.000000 0.000000 -1.000000 0.935522 0.097746 128 128 128 255
0.707106 -0.707107 -1.000000 -0.000000 0.000000 -1.000000 0.919706 0.080294 128 128 128 255
0.634393 -0.773011 -1.000000 -0.000000 0.000000 -1.000000 0.902254 0.064477 128 128 128 255
0.555570 -0.831470 -1.000000 -0.000000 0.000000 -1.000000 0.883337 0.050447 128 128 128 255
0.471396 -0.881922 -1.000000 -0.000000 0.000000 -1.000000 0.863135 0.038339 128 128 128 255
0.382683 -0.923880 -1.000000 -0.000000 0.000000 -1.000000 0.841844 0.028269 128 128 128 255
0.290284 -0.956941 -1.000000 -0.000000 0.000000 -1.000000 0.819668 0.020334 128 128 128 255
0.195090 -0.980785 -1.000000 -0.000000 0.000000 -1.000000 0.796821 0.014611 128 128 128 255
0.098016 -0.995185 -1.000000 -0.000000 0.000000 -1.000000 0.773524 0.011156 128 128 128 255
-0.000001 -1.000000 -1.000000 -0.000000 0.000000 -1.000000 0.750000 0.010000 128 128 128 255
-0.098018 -0.995185 -1.000000 -0.000000 0.000000 -1.000000 0.726476 0.011156 128 128 128 255
-0.195091 -0.980785 -1.000000 -0.000000 0.000000 -1.000000 0.703178 0.014612 128 128 128 255
-0.290286 -0.956940 -1.000000 -0.000000 0.000000 -1.000000 0.680331 0.020334 128 128 128 255
-0.382684 -0.923879 -1.000000 -0.000000 0.000000 -1.000000 0.658156 0.028269 128 128 128 255
-0.471398 -0.881921 -1.000000 -0.000000 0.000000 -1.000000 0.636865 0.038339 128 128 128 255
-0.555571 -0.831469 -1.000000 -0.000000 0.000000 -1.000000 0.616663 0.050447 128 128 128 255
-0.634394 -0.773010 -1.000000 -0.000000 0.000000 -1.000000 0.597745 0.064478 128 128 128 255
-0.707108 -0.707106 -1.000000 -0.000000 0.000000 -1.000000 0.580294 0.080295 128 128 128 255
-0.773011 -0.634393 -1.000000 -0.000000 0.000000 -1.000000 0.564477 0.097746 128 128 128 255
-0.831470 -0.555570 -1.000000 -0.000000 0.000000 -1.000000 0.550447 0.116663 128 128 128 255
-0.881922 -0.471396 -1.000000 -0.000000 0.000000 -1.000000 0.538339 0.136865 128 128 128 255
-0.923880 -0.382683 -1.000000 -0.000000 0.000000 -1.000000 0.528269 0.158156 128 128 128 255
-0.956940 -0.290285 -1.000000 -0.000000 0.000000 -1.000000 0.520334 0.180332 128 128 128 255
-0.980785 -0.195090 -1.000000 -0.000000 0.000000 -1.000000 0.514612 0.203178 128 128 128 255
-0.995185 -0.098017 -1.000000 -0.000000 0.000000 -1.000000 0.511156 0.226476 128 128 128 255
-1.000000 -0.000000 -1.000000 -0.000000 0.000000 -1.000000 0.510000 0.250000 128 128 128 255
-0.995185 0.098016 -1.000000 -0.000000 0.000000 -1.000000 0.511156 0.273524 128 128 128 255
-0.980785 0.195089 -1.000000 -0.000000 0.000000 -1.000000 0.514611 0.296821 128 128 128 255
-0.956941 0.290284 -1.000000 -0.000000 0.000000 -1.000000 0.520334 0.319668 128 128 128 255
-0.923880 0.382682 -1.000000 -0.000000 0.000000 -1.000000 0.528269 0.341844 128 128 128 255
-0.881922 0.471395 -1.000000 -0.000000 0.000000 -1.000000 0.538339 0.363135 128 128 128 255
-0.831471 0.555569 -1.000000 -0.000000 0.000000 -1.000000 0.550447 0.383337 128 128 128 255
-0.773012 0.634392 -1.000000 -0.000000 0.000000 -1.000000 0.564477 0.402254 128 128 128 255
-0.707108 0.707105 -1.000000 -0.000000 0.000000 -1.000000 0.580294 0.419705 128 128 128 255
-0.634395 0.773009 -1.000000 -0.000000 0.000000 -1.000000 0.597745 0.435522 128 128 128 255
-0.555572 0.831468 -1.000000 -0.000000 0.000000 -1.000000 0.616663 0.449552 128 128 128 255
-0.471399 0.881920 -1.000000 -0.000000 0.000000 -1.000000 0.636864 0.461661 128 128 128 255
-0.382686 0.923878 -1.000000 -0.000000 0.000000 -1.000000 0.658155 0.471731 128 128 128 255
-0.290288 0.956939 -1.000000 -0.000000 0.000000 -1.000000 0.680331 0.479665 128 128 128 255
-0.195093 0.980785 -1.000000 -0.000000 0.000000 -1.000000 0.703178 0.485388 128 128 128 255
-0.098021 0.995184 -1.000000 -0.000000 0.000000 -1.000000 0.726475 0.488844 128 128 128 255
4 0 1 2 3
4 4 5 6 7
4 8 9 10 11
4 12 13 14 15
4 16 17 18 19
4 20 21 22 23
4 24 25 26 27
4 28 29 30 31
4 32 33 34 35
4 36 37 38 39
4 40 41 42 43
4 44 45 46 47
4 48 49 50 51
4 52 53 54 55
4 56 57 58 59
4 60 61 62 63
4 64 65 66 67
4 68 69 70 71
4 72 73 74 75
4 76 77 78 79
4 80 81 82 83
4 84 85 86 87
4 88 89 90 91
4 92 93 94 95
4 96 97 98 99
4 100 101 102 103
4 104 105 106 107
4 108 109 110 111
4 112 113 114 115
4 116 117 118 119
4 120 121 122 123
4 124 125 126 127
4 128 129 130 131
4 132 133 134 135
4 136 137 138 139
4 140 141 142 143
4 144 145 146 147
4 148 149 150 151
4 152 153 154 155
4 156 157 158 159
4 160 161 162 163
4 164 165 166 167
4 168 169 170 171
4 172 173 174 175
4 176 177 178 179
4 180 181 182 183
4 184 185 186 187
4 188 189 190 191
4 192 193 194 195
4 196 197 198 199
4 200 201 202 203
4 204 205 206 207
4 208 209 210 211
4 212 213 214 215
4 216 217 218 219
4 220 221 222 223
4 224 225 226 227
4 228 229 230 231
4 232 233 234 235
4 236 237 238 239
4 240 241 242 243
4 244 245 246 247
64 248 249 250 251 252 253 254 255 256 257 258 259 260 261 262 263 264 265 266 267 268 269 270 271 272 273 274 275 276 277 278 279 280 281 282 283 284 285 286 287 288 289 290 291 292 293 294 295 296 297 298 299 300 301 302 303 304 305 306 307 308 309 310 311
4 312 313 314 315
4 316 317 318 319
64 320 321 322 323 324 325 326 327 328 329 330 331 332 333 334 335 336 337 338 339 340 341 342 343 344 345 346 347 348 349 350 351 352 353 354 355 356 357 358 359 360 361 362 363 364 365 366 367 368 369 370 371 372 373 374 375 376 377 378 379 380 381 382 383
