ply
format ascii 1.0
comment Created by Blender 2.82 (sub 7) - www.blender.org, source file: ''
element vertex 100
property float x
property float y
property float z
property float nx
property float ny
property float nz
property float s
property float t
property uchar red
property uchar green
property uchar blue
property uchar alpha
element face 81
property list uchar uint vertex_indices
end_header
-25.000000 -25.000000 0.000000 0.000000 0.000000 1.000000 0.000000 0.000000 128 128 128 255
-19.444445 -25.000000 0.000000 0.000000 0.000000 1.000000 0.111111 0.000000 128 128 128 255
-19.444445 -19.444445 0.000000 0.000000 0.000000 1.000000 0.111111 0.111111 128 128 128 255
-25.000000 -19.444445 0.000000 0.000000 0.000000 1.000000 0.000000 0.111111 128 128 128 255
-13.888889 -25.000000 0.000000 0.000000 0.000000 1.000000 0.222222 0.000000 128 128 128 255
-13.888889 -19.444445 0.000000 0.000000 0.000000 1.000000 0.222222 0.111111 128 128 128 255
-8.333333 -25.000000 0.000000 0.000000 0.000000 1.000000 0.333333 0.000000 128 128 128 255
-8.333333 -19.444445 0.000000 0.000000 0.000000 1.000000 0.333333 0.111111 128 128 128 255
-2.777778 -25.000000 0.000000 0.000000 0.000000 1.000000 0.444444 0.000000 128 128 128 255
-2.777778 -19.444445 0.000000 0.000000 0.000000 1.000000 0.444444 0.111111 128 128 128 255
2.777779 -25.000000 0.000000 0.000000 0.000000 1.000000 0.555556 0.000000 128 128 128 255
2.777779 -19.444445 0.000000 0.000000 0.000000 1.000000 0.555556 0.111111 128 128 128 255
8.333334 -25.000000 0.000000 0.000000 0.000000 1.000000 0.666667 0.000000 128 128 128 255
8.333334 -19.444445 0.000000 0.000000 0.000000 1.000000 0.666667 0.111111 128 128 128 255
13.888889 -25.000000 0.000000 0.000000 0.000000 1.000000 0.777778 0.000000 128 128 128 255
13.888889 -19.444445 0.000000 0.000000 0.000000 1.000000 0.777778 0.111111 128 128 128 255
19.444445 -25.000000 0.000000 0.000000 0.000000 1.000000 0.888889 0.000000 128 128 128 255
19.444445 -19.444445 0.000000 0.000000 0.000000 1.000000 0.888889 0.111111 128 128 128 255
25.000000 -25.000000 0.000000 0.000000 0.000000 1.000000 1.000000 0.000000 128 128 128 255
25.000000 -19.444445 0.000000 0.000000 0.000000 1.000000 1.000000 0.111111 128 128 128 255
-19.444445 -13.888889 0.000000 0.000000 0.000000 1.000000 0.111111 0.222222 128 128 128 255
-25.000000 -13.888889 0.000000 0.000000 0.000000 1.000000 0.000000 0.222222 128 128 128 255
-13.888889 -13.888889 0.000000 0.000000 0.000000 1.000000 0.222222 0.222222 128 128 128 255
-8.333333 -13.888889 0.000000 0.000000 0.000000 1.000000 0.333333 0.222222 128 128 128 255
-2.777778 -13.888889 0.000000 0.000000 0.000000 1.000000 0.444444 0.222222 128 128 128 255
2.777779 -13.888889 0.000000 0.000000 0.000000 1.000000 0.555556 0.222222 128 128 128 255
8.333334 -13.888889 0.000000 0.000000 0.000000 1.000000 0.666667 0.222222 128 128 128 255
13.888889 -13.888889 0.000000 0.000000 0.000000 1.000000 0.777778 0.222222 128 128 128 255
19.444445 -13.888889 0.000000 0.000000 0.000000 1.000000 0.888889 0.222222 128 128 128 255
25.000000 -13.888889 0.000000 0.000000 0.000000 1.000000 1.000000 0.222222 128 128 128 255
-19.444445 -8.333333 0.000000 0.000000 0.000000 1.000000 0.111111 0.333333 128 128 128 255
-25.000000 -8.333333 0.000000 0.000000 0.000000 1.000000 0.000000 0.333333 128 128 128 255
-13.888889 -8.333333 0.000000 0.000000 0.000000 1.000000 0.222222 0.333333 128 128 128 255
-8.333333 -8.333333 0.000000 0.000000 0.000000 1.000000 0.333333 0.333333 128 128 128 255
-2.777778 -8.333333 0.000000 0.000000 0.000000 1.000000 0.444444 0.333333 128 128 128 255
2.777779 -8.333333 0.000000 0.000000 0.000000 1.000000 0.555556 0.333333 128 128 128 255
8.333334 -8.333333 0.000000 0.000000 0.000000 1.000000 0.666667 0.333333 128 128 128 255
13.888889 -8.333333 0.000000 0.000000 0.000000 1.000000 0.777778 0.333333 128 128 128 255
19.444445 -8.333333 0.000000 0.000000 0.000000 1.000000 0.888889 0.333333 128 128 128 255
25.000000 -8.333333 0.000000 0.000000 0.000000 1.000000 1.000000 0.333333 128 128 128 255
-19.444445 -2.777778 0.000000 0.000000 0.000000 1.000000 0.111111 0.444444 128 128 128 255
-25.000000 -2.777778 0.000000 0.000000 0.000000 1.000000 0.000000 0.444444 128 128 128 255
-13.888889 -2.777778 0.000000 0.000000 0.000000 1.000000 0.222222 0.444444 128 128 128 255
-8.333333 -2.777778 0.000000 0.000000 0.000000 1.000000 0.333333 0.444444 128 128 128 255
-2.777778 -2.777778 0.000000 0.000000 0.000000 1.000000 0.444444 0.444444 128 128 128 255
2.777779 -2.777778 0.000000 0.000000 0.000000 1.000000 0.555556 0.444444 128 128 128 255
8.333334 -2.777778 0.000000 0.000000 0.000000 1.000000 0.666667 0.444444 128 128 128 255
13.888889 -2.777778 0.000000 0.000000 0.000000 1.000000 0.777778 0.444444 128 128 128 255
19.444445 -2.777778 0.000000 0.000000 0.000000 1.000000 0.888889 0.444444 128 128 128 255
25.000000 -2.777778 0.000000 0.000000 0.000000 1.000000 1.000000 0.444444 128 128 128 255
-19.444445 2.777779 0.000000 0.000000 0.000000 1.000000 0.111111 0.555556 128 128 128 255
-25.000000 2.777779 0.000000 0.000000 0.000000 1.000000 0.000000 0.555556 128 128 128 255
-13.888889 2.777779 0.000000 0.000000 0.000000 1.000000 0.222222 0.555556 128 128 128 255
-8.333333 2.777779 0.000000 0.000000 0.000000 1.000000 0.333333 0.555556 128 128 128 255
-2.777778 2.777779 0.000000 0.000000 0.000000 1.000000 0.444444 0.555556 128 128 128 255
2.777779 2.777779 0.000000 0.000000 0.000000 1.000000 0.555556 0.555556 128 128 128 255
8.333334 2.777779 0.000000 0.000000 0.000000 1.000000 0.666667 0.555556 128 128 128 255
13.888889 2.777779 0.000000 0.000000 0.000000 1.000000 0.777778 0.555556 128 128 128 255
19.444445 2.777779 0.000000 0.000000 0.000000 1.000000 0.888889 0.555556 128 128 128 255
25.000000 2.777779 0.000000 0.000000 0.000000 1.000000 1.000000 0.555556 128 128 128 255
-19.444445 8.333334 0.000000 0.000000 0.000000 1.000000 0.111111 0.666667 128 128 128 255
-25.000000 8.333334 0.000000 0.000000 0.000000 1.000000 0.000000 0.666667 128 128 128 255
-13.888889 8.333334 0.000000 0.000000 0.000000 1.000000 0.222222 0.666667 128 128 128 255
-8.333333 8.333334 0.000000 0.000000 0.000000 1.000000 0.333333 0.666667 128 128 128 255
-2.777778 8.333334 0.000000 0.000000 0.000000 1.000000 0.444444 0.666667 128 128 128 255
2.777779 8.333334 0.000000 0.000000 0.000000 1.000000 0.555556 0.666667 128 128 128 255
8.333334 8.333334 0.000000 0.000000 0.000000 1.000000 0.666667 0.666667 128 128 128 255
13.888889 8.333334 0.000000 0.000000 0.000000 1.000000 0.777778 0.666667 128 128 128 255
19.444445 8.333334 0.000000 0.000000 0.000000 1.000000 0.888889 0.666667 128 128 128 255
25.000000 8.333334 0.000000 0.000000 0.000000 1.000000 1.000000 0.666667 128 128 128 255
-19.444445 13.888889 0.000000 0.000000 0.000000 1.000000 0.111111 0.777778 128 128 128 255
-25.000000 13.888889 0.000000 0.000000 0.000000 1.000000 0.000000 0.777778 128 128 128 255
-13.888889 13.888889 0.000000 0.000000 0.000000 1.000000 0.222222 0.777778 128 128 128 255
-8.333333 13.888889 0.000000 0.000000 0.000000 1.000000 0.333333 0.777778 128 128 128 255
-2.777778 13.888889 0.000000 0.000000 0.000000 1.000000 0.444444 0.777778 128 128 128 255
2.777779 13.888889 0.000000 0.000000 0.000000 1.000000 0.555556 0.777778 128 128 128 255
8.333334 13.888889 0.000000 0.000000 0.000000 1.000000 0.666667 0.777778 128 128 128 255
13.888889 13.888889 0.000000 0.000000 0.000000 1.000000 0.777778 0.777778 128 128 128 255
19.444445 13.888889 0.000000 0.000000 0.000000 1.000000 0.888889 0.777778 128 128 128 255
25.000000 13.888889 0.000000 0.000000 0.000000 1.000000 1.000000 0.777778 128 128 128 255
-19.444445 19.444445 0.000000 0.000000 0.000000 1.000000 0.111111 0.888889 128 128 128 255
-25.000000 19.444445 0.000000 0.000000 0.000000 1.000000 0.000000 0.888889 128 128 128 255
-13.888889 19.444445 0.000000 0.000000 0.000000 1.000000 0.222222 0.888889 128 128 128 255
-8.333333 19.444445 0.000000 0.000000 0.000000 1.000000 0.333333 0.888889 128 128 128 255
-2.777778 19.444445 0.000000 0.000000 0.000000 1.000000 0.444444 0.888889 128 128 128 255
2.777779 19.444445 0.000000 0.000000 0.000000 1.000000 0.555556 0.888889 128 128 128 255
8.333334 19.444445 0.000000 0.000000 0.000000 1.000000 0.666667 0.888889 128 128 128 255
13.888889 19.444445 0.000000 0.000000 0.000000 1.000000 0.777778 0.888889 128 128 128 255
19.444445 19.444445 0.000000 0.000000 0.000000 1.000000 0.888889 0.888889 128 128 128 255
25.000000 19.444445 0.000000 0.000000 0.000000 1.000000 1.000000 0.888889 128 128 128 255
-19.444445 25.000000 0.000000 0.000000 0.000000 1.000000 0.111111 1.000000 128 128 128 255
-25.000000 25.000000 0.000000 0.000000 0.000000 1.000000 0.000000 1.000000 128 128 128 255
-13.888889 25.000000 0.000000 0.000000 0.000000 1.000000 0.222222 1.000000 128 128 128 255
-8.333333 25.000000 0.000000 0.000000 0.000000 1.000000 0.333333 1.000000 128 128 128 255
-2.777778 25.000000 0.000000 0.000000 0.000000 1.000000 0.444444 1.000000 128 128 128 255
2.777779 25.000000 0.000000 0.000000 0.000000 1.000000 0.555556 1.000000 128 128 128 255
8.333334 25.000000 0.000000 0.000000 0.000000 1.000000 0.666667 1.000000 128 128 128 255
13.888889 25.000000 0.000000 0.000000 0.000000 1.000000 0.777778 1.000000 128 128 128 255
19.444445 25.000000 0.000000 0.000000 0.000000 1.000000 0.888889 1.000000 128 128 128 255
25.000000 25.000000 0.000000 0.000000 0.000000 1.000000 1.000000 1.000000 128 128 128 255
4 0 1 2 3
4 1 4 5 2
4 4 6 7 5
4 6 8 9 7
4 8 10 11 9
4 10 12 13 11
4 12 14 15 13
4 14 16 17 15
4 16 18 19 17
4 3 2 20 21
4 2 5 22 20
4 5 7 23 22
4 7 9 24 23
4 9 11 25 24
4 11 13 26 25
4 13 15 27 26
4 15 17 28 27
4 17 19 29 28
4 21 20 30 31
4 20 22 32 30
4 22 23 33 32
4 23 24 34 33
4 24 25 35 34
4 25 26 36 35
4 26 27 37 36
4 27 28 38 37
4 28 29 39 38
4 31 30 40 41
4 30 32 42 40
4 32 33 43 42
4 33 34 44 43
4 34 35 45 44
4 35 36 46 45
4 36 37 47 46
4 37 38 48 47
4 38 39 49 48
4 41 40 50 51
4 40 42 52 50
4 42 43 53 52
4 43 44 54 53
4 44 45 55 54
4 45 46 56 55
4 46 47 57 56
4 47 48 58 57
4 48 49 59 58
4 51 50 60 61
4 50 52 62 60
4 52 53 63 62
4 53 54 64 63
4 54 55 65 64
4 55 56 66 65
4 56 57 67 66
4 57 58 68 67
4 58 59 69 68
4 61 60 70 71
4 60 62 72 70
4 62 63 73 72
4 63 64 74 73
4 64 65 75 74
4 65 66 76 75
4 66 67 77 76
4 67 68 78 77
4 68 69 79 78
4 71 70 80 81
4 70 72 82 80
4 72 73 83 82
4 73 74 84 83
4 74 75 85 84
4 75 76 86 85
4 76 77 87 86
4 77 78 88 87
4 78 79 89 88
4 81 80 90 91
4 80 82 92 90
4 82 83 93 92
4 83 84 94 93
4 84 85 95 94
4 85 86 96 95
4 86 87 97 96
4 87 88 98 97
4 88 89 99 98
